<?xml version="1.0"?>
<svg xmlns:rdf="http://www.w3.org/1999/02/22-rdf-syntax-ns#" xmlns="http://www.w3.org/2000/svg" xmlns:cc="http://web.resource.org/cc/" xmlns:xlink="http://www.w3.org/1999/xlink" xmlns:dc="http://purl.org/dc/elements/1.1/" xmlns:svg="http://www.w3.org/2000/svg" id="Layer_1" style="enable-background:new 0 0 205.542 289.016" xml:space="preserve" viewBox="0 0 205.542 289.016" version="1.1" y="0px" x="0px">
<g clip-rule="evenodd" fill-rule="evenodd">
	<path d="m48.102 141.41c0.282 0.758 1.245 0.835 1.68 1.44-0.468 1.612-1.164 2.997-2.88 3.36-0.187-1.387 0.302-2.098 0.72-2.88-0.426-0.854-1.866-0.693-1.92-1.92 0.271-0.929 1.542-0.858 1.68-1.92-1.149-0.451-2.021-1.179-2.4-2.4 1.654-2.685 6.005-0.995 5.28 2.16-0.207 0.9-1.44 1.3-2.16 2.16z"/>
	<path d="m164.26 171.9c0.03 0.664-0.528 1.119-0.72 1.68-0.089 0.258 0.161 1.567-0.24 1.92-0.824 0.725-1.021 2.918-1.681 4.32-0.278 0.594-0.893 1.038-1.199 1.68-0.697 1.456-1.235 3.183-2.4 4.56-1.525 1.805-3.168 5.13-4.56 7.44-0.446 0.739-0.75 1.503-1.2 2.16-0.932 1.359-2.079 2.29-3.12 3.84-1.834 2.731-4.569 5.567-6.72 8.4-2.955 1.045-3.923 4.077-8.16 3.84 0.634-2.246 2.985-2.775 4.8-3.84 2.461-3.219 5.884-5.477 7.68-9.36 1.491-0.749 2.244-2.236 2.88-3.84 3.142-2.379 3.734-7.307 6.721-9.84 2.155-4.245 4.711-8.089 6.24-12.96-0.068-0.388 0.227-0.413 0.239-0.721 0.85-0.14 1.24 0.2 1.44 0.72z"/>
	<path d="m190.42 206.69c-0.897 1.391-1.673-0.096-2.4-0.721-2.211-1.898-4.631-5.062-6.72-6.96 0.137-0.776-0.073-1.207-0.48-1.439 0.14-1.578 0.121-2.038 0.721-2.88-0.268-1.812-1.755-2.405-2.16-4.08-3.411-2.806-5.78-7.087-9.36-10.08-0.718-0.601-1.234-1.618-2.16-2.4-0.206 2.436-1.493 5.064-1.439 6.96-0.646 2.047-2.416 3.542-3.36 5.521-0.644 1.349-0.76 2.917-1.44 4.32-0.157 0.324-0.571 0.453-0.72 0.72-0.873 1.572-1.309 3.127-2.399 4.56-0.971 1.273-2.103 2.578-2.881 4.32-0.213 0.187-0.541 0.258-0.96 0.24-2.05 3.683-4.815 6.721-7.68 9.6-2.445 2.458-5.657 4.033-7.439 7.2-0.891 0.149-1.405 0.675-2.16 0.96-1.508 2.251-4.093 3.436-6 5.52-0.342 0.373-0.596 1.109-0.96 1.44-2.4 2.18-6.879 3.113-7.44 7.2-3.455 1.694-6.307 4.762-8.64 7.92-1.945 0.955-3.413 2.885-4.8 4.56-2.093 2.526-4.53 5.341-6.96 7.92-0.086 0.715-0.383 1.218-0.721 1.681-2.94 2.499-4.242 6.638-7.2 9.12-3.053 5.106-5.961 10.358-9.6 14.88 0.155 0.955-0.635 0.965-0.48 1.92-1.825 1.308-1.576 3.544-3.6 4.319-0.941 0.062-0.607-1.152-1.44-1.199-0.689-4.102-2.758-7.596-4.32-11.761-0.504-1.345-0.958-2.924-1.44-4.319-0.966-2.798-2.247-5.634-2.88-8.4-0.215-0.94-0.055-1.938-0.24-2.88-0.627-3.199-1.217-6.934-1.44-11.28-0.438-8.533-2.005-16.663 0.24-24.72 1.995-1.926 1.74-6.101 4.08-7.68 2.049 0.49 1.642 3.442 1.68 5.279 0.1 4.852-0.532 11.045 0 16.561 0.097 1.01 0.68 1.909 0.24 2.88 3.42-6.82 5.733-14.747 10.56-20.16-5.234-1.406-9.225-4.056-12.24-7.68-2.229 4.332-4.916 8.204-10.32 9.359-4.683-0.757-6.707-4.173-8.4-7.92-0.571-4.65 1.892-6.268 3.84-8.399-1.756-2.079-4.896-3.186-8.4-3.84-6.273-1.173-13.652-0.395-16.32-4.32-0.938-1.833-0.791-3.014 0.24-4.561 0.79-1.184 2.974-2.301 4.8-3.119 1.838-0.824 3.864-1.973 5.04-1.44-0.433 1.35-2 1.751-3.12 2.4-1.1 0.638-2.301 1.585-3.6 1.92-0.477 0.883-1.273 1.446-1.68 2.399 0.691 2.695 3.752 3.229 7.44 3.84 5.379 0.894 11.284 0.978 15.36 3.36 1.032 0.604 3.063 2.079 2.64 3.601-0.621 2.23-4.036 3.272-3.6 6.72 0.438 3.47 3.012 7.414 6.48 7.2 0.558-0.035 2.646-1.115 3.12-1.681 1.451-1.731 4.263-3.943 4.56-5.76 0.271-1.656-0.486-2.796 0-4.08 1.646-0.359 2.143 0.98 2.88 1.68 0.723 0.687 1.886 1.315 2.16 2.4 3.339 3.083 8.381 5.659 14.64 6.48 5.346 0.701 13.45 0.929 18.72-0.24 1.111-0.247 2.931-0.289 4.56-0.72 1.55-0.41 3.008-1.374 4.32-1.921 1.45-0.603 2.903-1.559 4.32-1.199 0.563 2.483-1.958 1.882-2.4 3.359-2.342-0.135-3.391 2.422-6 2.88-2.86 0.503-6.999 1.036-9.84 1.2-5.04 0.292-10.093-0.587-14.64-0.96-1.404 1.805-1.95 7.905-0.24 9.84-1.033 1.124 0.05 3.21 0.24 5.04 0.433 4.166 0.543 8.303 1.2 12.96 7.034-4.839 15.82-6.444 22.8-11.279 0.859-0.14 0.729 0.71 0.72 1.439 5.4-4.999 9.576-11.224 16.08-15.12 0.119-0.84 0.971-0.949 0.96-1.92 1.867 0.304 2.782-1.906 4.08-3.12 1.63-1.524 4.154-2.855 6-4.319 1.204-2.235 3.9-2.979 4.8-5.521 1.466-0.193 1.938-1.548 2.88-2.64 1.193-1.384 2.672-3.089 3.84-4.8 0.623-0.912 1.049-1.72 1.68-2.641 0.487-0.71 0.685-0.815 1.2-1.68 0.428-0.716 0.969-1.84 1.92-2.4 0.876-3.204 3.237-4.923 3.601-8.64 1.364-1.389 1.492-3.292 2.399-5.521 0.519-1.272 1.403-2.8 1.2-5.279-0.061-1.14-1.369-1.03-1.2-2.4 1.793-0.84 2.688 0.302 4.08 1.44 2.401 1.963 4.825 5.036 7.2 6.72 0.543 1.938 2.607 2.353 3.12 4.32 1.381 0.859 2.081 2.398 3.6 3.12-0.006 1.664 1.315 2.024 1.44 3.6 0.074 0.938-0.639 1.879-0.48 2.88 0.395 2.494 4.85 5.971 6.48 7.68-0.56 1.61 1.46 1.78 0.24 2.64zm-106.08 22.56c0.831 0.609 2.066 0.813 2.88 1.44-0.2-2.36 0.441-3.879 0.48-6-2.209 0.44-2.828 2.46-3.36 4.56zm-12 25.44c1.334-0.105 1.184-1.696 2.16-2.16-0.083-1.844-0.015-3.534 0.48-4.8-0.213-0.588-1.34-0.26-1.2-1.2-0.743-5.098-1.023-10.657-3.12-14.4 0.547 8.18 0.739 14.4 1.68 22.56zm9.599-13.2c0.31 0.331 1.042 0.237 1.68 0.24-0.846-1.074-0.809-3.032-2.16-3.601-0.602 1.21 0.946 1.58 0.48 3.36zm-6 4.8c0.605-0.399 2.1-1.402 2.4-2.64 0.114-0.47 0.218-3.521-0.48-3.12-1.077 1.49-1.295 3.83-1.92 5.76zm11.761-4.8c-0.435 2.525-2.059 3.861-2.88 6 1.097 0.663 1.678 1.841 2.4 2.88-0.188 1.068 0.319 1.44 0.24 2.4 1.063 1.017 2.221 1.938 3.12 3.12 1.184 3.296 1.525 7.435 3.84 9.6 4.747-7.494 10.737-13.743 16.32-20.4-4.419 2.574-9.42 4.462-12.959 7.92-0.617 0.603-0.792 1.581-1.68 1.921h-0.96c-0.837-0.684-0.882-2.158-1.44-3.12-1.78 0.06-1.335 2.345-3.36 2.159-0.957-4.003-1.188-8.731-1.92-12.96-0.004 1.3 0.023 0.69-0.719 0.48zm-8.16 7.68c0.162-1.438 1.623-1.577 2.4-2.399-1.446 0-2.811 1.35-2.4 2.4zm0.72 1.2c-0.131-0.349 0.28-1.24-0.24-1.2-0.403 0.38-0.695 1.11 0.24 1.2zm-0.48 6.48c0.075-0.578-1.047-1.162-0.24-1.681 0.396 0.004 0.134 0.666 0.48 0.721-0.063-1.148 1.098-1.912-0.24-2.4-0.48 0.65-1.358 3.05 0 3.36zm0 2.16c0.146 0.574-0.301 1.742 0.24 1.921 0.377-0.184 0.359-0.762 0.96-0.721 0.012-0.731-0.218-1.222-0.72-1.439 0.012 0.45-0.185 0.51-0.48 0.24z"/>
	<path d="m178.9 207.41c0.894 0.867-0.004 3.524 0.96 4.32-0.657 0.71-0.123 1.572-0.24 2.399-0.296 2.1-1.377 3.761-2.159 5.521-3.569 2.591-5.051 7.269-6 12.479-0.625 0.18-1.444 0.886-2.16 0.24 0.155 2.164-0.082 2.607-0.24 4.8-0.687 0.753-1.982 0.898-3.12 1.2 1.932 1.749 5.07 2.29 6.72 4.32 1.001 0.12 1.059-0.701 2.16-0.48-0.213 2.188-0.16 4.641-2.64 4.561-0.529-0.507 0.308-0.71 0.24-1.44-3.665 0.575-7.507 0.974-10.561 2.16 1.343 2.978 1.301 7.339 2.88 10.08-0.304 0.815-1.082 1.157-1.199 2.16-1.684 0.316-3.75 0.251-4.801 1.2-3.146 0.239-4.863 0.423-6.96 1.68-3.562 0.422-7.312 1.699-10.56 2.88-7.202 2.617-15.718 6.013-22.561 9.6-0.965 0.506-1.707 1.258-2.64 1.681-2.688 1.218-5.858 1.621-7.68 4.08-5.453 1.747-8.763 5.637-13.92 7.68-1.231-1.276 0.269-1.922 0.96-2.64 4.682-4.864 11.663-9.152 16.8-13.681 2.318-0.642 3.745-2.175 5.76-3.12 5.188-4.076 10.123-7.104 16.32-10.319 4.608-3.523 11.407-5.229 16.32-8.641 0.733 0.175 0.705-0.414 1.439-0.239 5.292-2.629 10.434-5.407 18-5.761-0.584-1.43-2.654-2.175-4.08-2.88-1.504-0.743-2.866-1.539-4.32-2.399-2.898-1.718-6.224-2.731-9.119-4.32-0.347-0.19-0.467-0.797-0.721-0.96-0.754-0.486-1.756-0.128-2.16-0.96h-1.68c-0.245-1.125 0.396-1.365 0.72-1.92 6.262 0.516 12.345-0.082 19.921 0 2.307-8.413 5.832-15.608 9.119-23.04 0.214-0.106 0.43-0.211 0.48-0.48 0.39-0.06 0.42 0.23 0.72 0.24z"/>
	<path d="m51.702 220.61c-0.607 1.859-2.534 2.562-4.32 3.84-1.087 0.778-2.004 1.473-3.12 2.16-2.99 1.843-6.008 3.721-9.12 5.28-0.907 0.454-1.672 0.579-2.64 0.96-1.5 0.589-3.001 1.719-4.56 2.64-1.291 0.763-3.456 2.356-5.04 0.72 2.304-2.416 5.983-3.457 8.4-5.76 3.712-0.848 5.723-3.396 9.12-4.56 2.928-2.433 7.224-3.497 9.84-6.24 0.788 0.02 1.179 0.42 1.44 0.96z"/>
	<path d="m201.94 142.61c-1.49 2.109-4.186 3.014-4.08 6.72-1.365 0.715-2.554 1.606-3.84 2.4-0.604 1.981-1.317 3.988-1.92 6-0.621 2.071-1.709 3.352-2.64 5.04-1.192 0.567-2.757 0.763-3.12 2.16-1.805-0.182-2.132 1.229-3.601 1.68-2.028 0.622-4.273-0.382-6.72 0-1.706 0.267-3.055 1.692-4.56 2.16-2.614 0.812-5.623 0.785-8.641 0.96-0.935 0.054-1.855 0.327-2.88 0.239-1.693-0.144-3.242-1.164-4.8-0.96-1.885 0.248-3.775 2.266-6.24 2.641-5.699 0.867-9.816-0.937-11.28-5.28-4.439-0.17-7.166-2.612-7.439-6.24-0.718-0.482-2.265-0.136-3.36-0.239-1.417 1.185-1.065 2.969-1.92 4.319-1.12 1.771-3.382 2.85-3.359 5.521-2.163 1.249-4.608 4.171-7.921 4.08-2.129-0.059-3.254-1.497-4.8-2.88-0.484-3.815-1.779-8.78-0.479-12.24 0.624-0.18 1.443-0.886 2.16-0.24 0.263 1.346-0.878 1.955-0.96 3.12-0.17 2.393 1.558 4.146 2.88 5.52 7.028 1.892 10.918-2.818 12-8.399-0.85-0.831-1.855-1.505-3.12-1.92-2.105 0.935-3.22 2.86-6.96 2.16-1.502-0.789-1.329-2.572-2.88-2.881-1.58-0.313-2.028 0.836-3.601 1.681-0.292 0.156-0.974 0.03-1.439 0.239-1.566 0.705-3.151 2.387-6.48 1.681-1.382-1.002-3.236-1.701-3.6-3.601-0.229-1.194 0.642-2.281 0.24-3.6-1.921-0.799-3.822-1.618-4.8-3.36 0.277-1.743-0.33-3.185 0-4.56 0.367-1.532 1.842-2.442 1.68-3.84-0.178-1.538-2.114-2.171-2.4-2.88-1.188-2.944 1.308-5.728 2.4-7.92 0.314-0.631 0.633-1.382 0.96-2.16 0.724-1.717 1.593-3.03 0.24-5.52-5.843 1.559-8.573-2.247-7.92-7.2-4.351-0.798-5.903 3.193-8.64 4.8-2.809 0.083-3.853-0.196-5.76-1.44-1.919-1.251-2.733-1.785-3.84-4.32-0.396-0.907-0.883-1.796-0.96-2.4-0.41-3.221 1.738-6.191 1.44-9.12-1.928 0.502-3.872 1.519-5.76 2.64-0.751 0.446-1.207 1.211-1.92 1.68-1.427 0.937-3.542 1.278-4.56 2.88-2.673 0.221-5.097 1.302-7.68 0.96-2.82-0.374-4.161-2.724-6-4.08-0.055-1.372-0.563-2.747-0.48-5.28 0.026-0.782-0.082-2.089 0-2.4 0.333-1.262 1.668-2.486 2.4-3.6 0.837-1.273 1.543-2.442 2.16-3.6-1.947 0.275-3 2.316-4.08 3.84-1.108 1.564-2.04 3.331-2.4 5.52-0.75 4.551-0.281 8.933-1.92 12.72-0.187 0.43-0.723 0.695-0.96 1.2-0.487 1.038-0.643 1.384-1.2 2.16-0.832 1.158-1.726 2.764-3.6 3.12 3.331-0.605 6.693-1.761 10.56-3.12 3.445-1.211 6.5-3.342 10.08-1.92 0.913 0.363 1.85 1.362 2.88 1.92 1.063 0.575 2.177 0.848 3.12 1.44 1.001 0.628 1.879 1.326 2.88 1.92 0.932 0.552 2.032 1.038 2.64 1.92-1.582 1.009-5.416 0.363-6.96-0.24-0.953 0.509-2.029 0.396-3.12 0-2.404 0.316-4.101 1.339-5.04 3.12 1.011 0.196 2.058 0.077 2.88 0.24 3.826 0.76 7.221 3.514 10.08 5.04 1.663 0.887 3.74 0.055 6 0.24 0.883 0.954-0.76 0.836-0.48 1.92-1.141 0.139-2.213 0.347-3.6 0.24-0.39 0.799 1.615 1.258 1.44 2.64 0.916 0.214 1.532-0.392 1.92 0 0.139 0.779-0.164 1.116-0.24 1.68-3.562 1.263-3.708-2.808-6.48-3.12-0.077-0.556 0.039-0.921 0.24-1.2-1.547 0.277-3.08 2.228-4.32 0.72-0.56-0.858 1.441-0.859 1.68-1.68-0.456-0.745-1.548-0.853-1.44-2.16-1.773-0.483-2.826-1.217-4.56-2.16 0.235 3.622-1.996 10.465-4.32 6-0.136-0.261-0.077-0.745-0.24-1.2-0.128-0.358-0.717-0.709-0.72-0.72-0.264-0.935-0.021-2.878-0.24-4.32-2.949 1.451-5.339 3.46-9.12 4.08 0.686 0.814 1.703 0.85 2.16 1.92 0.363 0.849 0.082 1.922 0.24 3.12 0.974-0.071 1.077 2.312 1.44 3.6-1.003-0.191-1.436 1.429-2.4 0.48-0.71-0.707 0.749-0.469 0.96-0.96-0.076-0.563-0.379-0.901-0.24-1.68-0.606 1.874-2.002 2.958-2.4 5.04-0.731-0.011-0.934 0.507-1.44 0.72 0.058 0.74-0.513 0.952-0.96 1.68-0.25 0.407-0.406 1.278-0.72 1.68-0.368 0.471-1.249 0.684-1.68 1.2-0.388 0.464-0.368 1.292-0.72 1.68-0.708 0.78-1.938 1.227-2.64 2.16-0.342 0.455-0.545 1.288-0.96 1.92-0.774 1.182-1.628 2.678-2.64 4.08-0.685 0.949-1.526 2.315-2.4 4.08-1.169 2.361-1.796 4.659-2.64 7.68-0.65 2.33-0.736 3.411-0.72 5.761 0.019 2.663-1.315 7.222 2.64 7.2 1.751-0.011 5.021-2.66 6.48-3.841 1.004-0.812 1.464-1.221 2.64-1.92 0.719-0.427 0.883-1.159 1.92-1.68-1.098-0.349-0.853-2.354-0.24-3.36 1.092-1.791 4.172-2.091 6.96-3.359 2.257-1.027 3.631-2.51 4.8-3.36 0.015-1.597 1.488-3.603 0.24-5.52-1.902-1.914-5.477-0.548-7.2 0.479-0.404-1.924 1.288-1.752 1.92-2.64 2.928 0.079 5.503-0.325 6.96 1.2 0.645 0.674 0.18 1.687 1.2 2.159-0.165 2.476-0.711 4.569-1.68 6.24-1.13 0.016-1.34 1.174-2.16 1.68-2.761 1.704-6.864 1.81-8.4 4.801 2.58-0.939 5.07-1.97 7.68-2.88 0.028 2.587-1.896 3.224-1.92 5.76-1.615 0.785-1.476 3.323-2.64 4.56 1.205 1.836 2.292 3.788 3.84 5.28 7.496 0.136 11.285-3.435 15.6-6.48-2.307-2.812-4.393-5.847-6.24-9.119-0.626-2.997-1.46-6.727-1.92-9.841-0.132-0.893-1.329-2.568 0.24-3.12 1.072 0.54 1.025 2.099 1.2 3.12 0.589 3.438 1.399 7.226 2.88 10.08 1.531 1.509 2.7 3.38 3.84 5.28 0.058 0.422 0.413 0.547 0.96 0.48 0.252 2.147 2.263 2.536 2.88 4.319 2.256 1.344 3.912 3.288 5.76 5.04 0.704 0.416 1.862 0.378 1.68 1.68-0.571 0.778-1.76 0.008-2.4-0.239-2.918-1.129-5.425-3.95-7.68-6-0.724-0.13-1.161 0.543-1.68 0.96-1.27 1.021-1.824 1.366-3.84 2.399-1.33 0.683-2.125 1.087-3.84 1.681-1.049 0.362-2.58 1.459-4.08 1.68-1.794 0.264-4.296 0.247-5.76-0.72-0.63-0.417-1.013-1.696-1.68-2.641-0.581-0.821-1.491-1.464-1.92-2.159-0.944-1.529-1.2-3.617-2.64-4.801-1.078 0.422-2.32 1.707-3.36 2.641-0.845 0.758-1.63 1.364-2.88 2.16-1.163 0.739-3.898 2.344-6 2.159-1.86-0.163-2.329-1.712-4.32-2.159-3.46-8.966 2.322-17.571 4.8-24.961 2.105-2.854 4.28-5.64 6-8.88 0.894-0.706 1.83-1.37 2.16-2.64 0.49-0.229 0.95-0.49 1.44-0.72 0.282-2.266 2.749-3.461 3.84-5.28 0.28-0.468 0.191-1.273 0.48-1.92 0.61-1.367 1.785-2.018 1.68-3.84-0.075-1.297-1.729-1.563-0.72-2.88-1.888 0.775-4.23 1.097-7.2 1.44-1.319 0.152-3.327 0.431-5.76 0-1.455-0.257-3.189-0.636-4.08-0.96-0.83-0.301-2.568-1.323-2.88-1.68-0.148-0.169 0.02-0.762-0.24-1.2-0.1-0.169-0.657-0.314-0.72-0.48-0.422-1.105 0.196-2.876-1.44-3.6-1.223 0.66 0.522 2.025-0.24 2.88-2.482-1.552 0.643-5.247 0.72-7.2 0.773 0.39 1.3 0.115 2.16 0-0.002-0.638 0.091-1.371-0.24-1.68-0.22-0.652-0.446 0.64-1.2 0.24-0.602-2.122 0.303-3.322 1.44-4.32 1.107 0.013 2.346-0.106 3.12 0.24 0.547-0.333 0.089-1.67 0.24-2.4 0.87 0.088 1.162-1.08 1.92-1.44 1.944-0.924 5.655-1.291 6.96-0.24 0.025 1.728-2.004 1.468-2.88 2.16-2.982 2.354-1.408 9.312 4.8 7.2-0.503-0.377-1.545-0.214-1.68-0.96 0.888-1.187 2.147-1.282 3.12-2.4 1.777-2.042 2.151-5.204 3.36-7.92 0.012-2.507 1-4.914 0.48-7.2 0.246-0.234 0.486-0.474 0.72-0.72-0.038-3.958 2.364-5.476 3.36-8.4 0.857-0.103 1.317-0.603 1.68-1.2-3.019-0.735-5.989 0.245-8.88 0.24-2.386-0.004-4.426-0.902-6.72-0.96-2.235-1.365-6.088-1.112-7.92-2.88-9.927-1.753-14.392-8.968-19.2-15.84-0.573-3.991-1.598-8.114-0.72-12 0.504-2.232 1.968-4.136 2.4-6.24 2.386-2.254 5.33-3.95 7.68-6.24-1.816-1.223-2.097-3.983-4.32-4.8 0.187-1.627-1.06-1.82-1.68-2.64-0.076-0.563-0.379-0.901-0.24-1.68-2.218-3.231-2.66-7.404-2.64-13.2 0.888-1.672 2.311-4.696 3.12-6.72 0.254-0.636 0.214-1.364 0.48-1.92 0.125-0.26 0.564-0.419 0.72-0.72 0.812-1.572 2.33-5.31 3.6-6.48 0.757-0.698 2.137-1.245 3.12-1.92 0.339-0.233 1.005-0.327 1.2-0.48 0.558-0.438 0.733-1.268 1.2-1.68 1.332-1.176 3.159-1.501 4.08-3.12 1.35-0.256 2.141-0.68 3.84-1.2 0.455-0.139 1.043-0.632 1.44-0.72 1.553-0.343 3.921-0.596 5.28-0.72 4.484-0.409 8.173 1.596 11.52 2.4 2.447 2.267 5.843 3.664 7.68 6.48 0.679 1.042 0.911 2.688 1.44 4.08 0.638 1.68 1.278 3.695 2.16 6 1.523-1.197 2.351-3.09 3.36-4.8 1.514-0.646 2.292-2.028 3.12-3.36 1.098-0.902 2.224-1.776 2.88-3.12 2.169-0.816 3.836-2.919 6.48-3.12 1.938-0.147 3.7 1.072 6 0.96 1.846 0.851 3.201 2.624 5.04 2.4 1.12-0.136 1.992-1.781 3.12-2.4 1.37-0.752 3.296-0.915 4.8-1.44 1.111-0.388 1.898-1.091 2.88-1.2 4.915 2.045 8.58 5.341 10.08 10.8 2.644-1.225 5.268-3.096 8.4-2.64 2.101 0.306 7.574 4.772 8.88 6.48 0.596 0.779 0.767 1.802 1.199 2.4 4.537-0.937 8.782-4.112 15.601-3.12 2.55 0.371 5.912 2.841 7.68 4.56 1.995 1.94 3.771 4.405 4.561 6.72-0.074 0.553 0.693 0.267 0.72 0.72-0.191 1.199 0.84 1.175 0.24 2.16 4.94 2.413 10.987-1.641 16.8-0.72 0.833 0.687 1.787 1.253 2.64 1.92 0.239 2.161 2.139 2.662 2.88 4.32 1.271 0.362 2.41 0.437 3.36 1.44 0.49 0.518 2.438 3.656 2.64 4.32 0.706 2.333-0.078 4.989-0.239 7.68 1.29 0.011 1.936-0.625 2.159-1.68 0.891-0.23 1.785-0.455 2.4-0.96 3.924 0.316 5.129 3.351 7.68 5.04 0.438 0.842 0.593 1.968 0.96 2.88 2.166 1.354 4.154 2.886 5.521 5.04 0.457 0.45 0.603 0.026 1.2 0v1.44c0.24 0.678 0.227-0.762 0.72 0 0.877 2.778-0.771 5.608-0.24 8.64 2.597 0.917 4.286 4.404 7.2 5.76-0.227 0.623-0.438 1.409 0.24 1.68-0.544 1.573 0.093 2.455 0 3.84-0.036 0.532-0.357 0.333-0.48 0.72-0.215 0.677 0.155 1.78 0 2.4-0.181 0.722-0.833 1.458-1.2 2.4-0.492 1.269-0.617 2.712-1.199 3.84-0.832 1.609-3.036 5.897-3.36 8.4-0.37 2.853 0.656 2.607 2.16 4.08 0.725 0.709 1.919 1.056 2.88 1.92 0.611 0.55 0.522 0.888 0.96 1.92 0.146 0.415 1.139-0.019 1.2 0.48-0.078 0.487 0.208 1.782 1.2 2.4-0.686 5.076-3.716 9.234-7.681 11.76-0.529 1.427-0.037 2.387-0.479 3.84 0.805 0.995 1.402 2.246 2.399 3.36 0.705 0.788 1.54 1.968 2.16 2.64 1.569 2.404 0.63 6.147 0.48 8.88-0.498 0.142-0.818 0.461-0.96 0.96 0.06 0.43-0.24 1.21 0.48 0.96z"/>
</g>
<metadata><rdf:RDF><cc:Work><dc:format>image/svg+xml</dc:format><dc:type rdf:resource="http://purl.org/dc/dcmitype/StillImage"/><cc:license rdf:resource="http://creativecommons.org/licenses/publicdomain/"/><dc:publisher><cc:Agent rdf:about="http://openclipart.org/"><dc:title>Openclipart</dc:title></cc:Agent></dc:publisher><dc:title>Giovanni Martinelli</dc:title><dc:date>2009-06-15T00:59:35</dc:date><dc:description>The Art of Caricaturing by Mitchell Smith, 1941 Frederick J. Drake &amp; Co. - stated as Public Domain by Archive.org</dc:description><dc:source>http://openclipart.org/detail/26676/giovanni-martinelli-by-johnny_automatic</dc:source><dc:creator><cc:Agent><dc:title>johnny_automatic</dc:title></cc:Agent></dc:creator><dc:subject><rdf:Bag><rdf:li>caricature</rdf:li><rdf:li>cartoon</rdf:li><rdf:li>clip art</rdf:li><rdf:li>clipart</rdf:li><rdf:li>externalsource</rdf:li><rdf:li>famous-people</rdf:li><rdf:li>image</rdf:li><rdf:li>man</rdf:li><rdf:li>media</rdf:li><rdf:li>music</rdf:li><rdf:li>opera</rdf:li><rdf:li>person</rdf:li><rdf:li>public domain</rdf:li><rdf:li>singer</rdf:li><rdf:li>svg</rdf:li></rdf:Bag></dc:subject></cc:Work><cc:License rdf:about="http://creativecommons.org/licenses/publicdomain/"><cc:permits rdf:resource="http://creativecommons.org/ns#Reproduction"/><cc:permits rdf:resource="http://creativecommons.org/ns#Distribution"/><cc:permits rdf:resource="http://creativecommons.org/ns#DerivativeWorks"/></cc:License></rdf:RDF></metadata></svg>
